<?xml version="1.0" standalone="no"?>
<!DOCTYPE svg PUBLIC "-//W3C//DTD SVG 20010904//EN"
 "http://www.w3.org/TR/2001/REC-SVG-20010904/DTD/svg10.dtd">
<svg version="1.0" xmlns="http://www.w3.org/2000/svg"
 width="844.000000pt" height="735.000000pt" viewBox="0 0 844.000000 735.000000"
 preserveAspectRatio="xMidYMid meet">

<g transform="translate(0.000000,735.000000) scale(0.100000,-0.100000)"
fill="#000000" stroke="none">
<path d="M4050 6516 c-768 -98 -1454 -498 -1908 -1114 -163 -220 -317 -515
-396 -759 l-18 -53 -184 0 -185 0 3 -712 c3 -710 3 -713 25 -754 50 -93 124
-134 247 -134 l71 0 23 -78 c84 -279 248 -594 438 -842 78 -102 235 -277 296
-330 l38 -32 56 52 c31 28 94 80 140 116 l83 65 87 -70 c815 -659 1970 -714
2844 -136 69 46 158 111 198 145 l74 62 61 -48 c34 -26 97 -79 140 -117 l77
-69 35 26 c48 37 231 243 317 358 178 236 321 510 413 793 l33 100 171 3 172
2 -3 718 -3 717 -22 42 c-27 51 -82 96 -132 112 -21 6 -76 11 -123 11 l-84 0
-23 73 c-31 95 -121 301 -178 407 -298 551 -805 1012 -1370 1246 -208 86 -395
141 -618 180 -133 24 -181 27 -420 30 -183 2 -304 -1 -375 -10z m565 -76 c515
-49 983 -230 1395 -541 328 -247 597 -573 786 -949 53 -107 144 -327 144 -349
0 -7 -48 -11 -143 -11 l-144 0 -43 103 c-288 688 -887 1206 -1620 1401 -322
86 -719 99 -1060 35 -785 -149 -1456 -687 -1772 -1424 l-47 -110 -146 -3 -147
-3 7 23 c43 139 170 407 267 563 417 671 1127 1136 1900 1245 79 11 163 21
188 23 106 8 333 6 435 -3z m-69 -360 c318 -25 572 -95 859 -235 482 -235 860
-620 1090 -1108 29 -62 55 -120 58 -129 6 -17 -102 -18 -2168 -18 -1242 0
-2175 4 -2175 9 0 31 134 297 207 410 231 357 561 652 938 836 162 79 231 106
386 150 272 78 535 106 805 85z m-1155 -1764 c26 -8 66 -24 90 -36 54 -27 151
-100 147 -111 -2 -4 -29 -37 -61 -73 l-58 -66 -43 35 c-23 19 -69 47 -102 62
-51 24 -71 28 -149 27 -72 0 -99 -4 -136 -23 -78 -37 -125 -86 -166 -168 -35
-72 -38 -81 -37 -167 1 -149 57 -258 166 -324 135 -81 325 -54 448 64 l26 24
63 -64 62 -63 -52 -47 c-112 -101 -213 -139 -374 -139 -93 -1 -121 3 -181 25
-137 48 -243 141 -303 263 -161 327 15 711 362 791 74 16 229 12 298 -10z
m1450 -8 c96 -35 156 -74 220 -139 103 -106 156 -255 146 -409 -19 -296 -246
-510 -542 -513 -168 -2 -289 45 -401 157 -217 218 -217 554 0 772 118 117 249
167 421 160 62 -3 111 -12 156 -28z m1029 -4 c82 -26 193 -92 186 -110 -7 -19
-90 -133 -97 -134 -4 0 -33 16 -65 35 -111 67 -237 85 -319 45 -46 -22 -65
-53 -65 -106 0 -74 38 -99 230 -151 159 -44 238 -81 288 -138 45 -52 62 -100
62 -182 0 -194 -145 -313 -381 -313 -146 0 -288 48 -397 134 l-43 34 56 66
c31 36 58 66 59 66 2 0 33 -20 70 -45 152 -102 341 -114 416 -28 22 25 30 44
30 72 0 76 -51 109 -240 159 -263 69 -344 143 -345 312 0 62 5 85 28 132 80
164 294 225 527 152z m-1920 -514 l0 -530 -95 0 -95 0 0 530 0 530 95 0 95 0
0 -530z m-1830 -893 c105 -283 285 -570 506 -805 47 -51 85 -94 83 -96 -2 -2
-50 -41 -107 -86 l-104 -83 -55 54 c-187 183 -392 482 -517 756 -49 107 -126
314 -126 338 0 13 24 15 143 15 l142 0 35 -93z m4460 83 c0 -37 -137 -328
-211 -447 -139 -222 -376 -485 -571 -631 -335 -251 -698 -402 -1113 -464 -136
-20 -502 -17 -640 5 -358 59 -676 182 -965 377 -370 249 -671 613 -843 1020
-25 58 -48 115 -52 128 l-6 22 2200 0 c1422 0 2201 -3 2201 -10z m390 6 c0
-15 -79 -225 -116 -309 -128 -290 -333 -595 -527 -786 l-65 -63 -103 83 c-57
45 -106 84 -108 86 -2 1 34 42 80 90 238 247 399 509 539 878 l10 25 145 0
c80 0 145 -2 145 -4z"/>
<path d="M3278 5357 c-168 -47 -215 -255 -83 -365 67 -55 174 -68 255 -31 50
22 102 67 94 81 -9 15 -56 8 -91 -13 -103 -64 -229 -29 -268 74 -30 78 9 155
97 191 67 28 136 15 200 -39 29 -25 62 -33 72 -17 10 16 -36 70 -82 95 -59 32
-132 41 -194 24z"/>
<path d="M4600 5339 c14 -26 20 -28 110 -31 l75 -3 5 -173 c5 -172 9 -191 42
-192 4 0 9 82 10 183 l3 182 88 5 c84 5 106 14 107 43 0 4 -101 7 -225 7 -225
0 -226 0 -215 -21z"/>
<path d="M5060 5172 c0 -154 3 -192 16 -210 8 -12 22 -22 30 -22 22 0 21 382
-2 404 -8 9 -22 16 -30 16 -12 0 -14 -32 -14 -188z"/>
<path d="M5331 5346 c-23 -28 -189 -401 -180 -404 29 -11 60 11 84 58 l25 50
108 0 107 0 25 -47 c16 -31 35 -51 52 -57 15 -5 30 -7 33 -5 6 7 -175 402
-189 411 -18 12 -53 9 -65 -6z m80 -149 c20 -45 35 -86 32 -90 -3 -4 -38 -7
-80 -6 -71 2 -74 3 -69 24 8 33 67 155 74 155 4 0 23 -37 43 -83z"/>
<path d="M4487 5235 c-99 -25 -117 -64 -117 -260 0 -120 3 -145 14 -145 35 0
46 41 46 166 0 137 10 163 74 184 63 20 136 -29 136 -92 0 -67 -104 -114 -165
-74 -25 16 -25 16 -25 -13 0 -60 84 -80 168 -40 74 36 101 122 63 198 -35 68
-110 97 -194 76z"/>
<path d="M3640 5221 c-109 -57 -107 -211 3 -261 123 -56 247 12 247 136 0 42
-5 59 -27 85 -15 17 -42 38 -60 45 -46 20 -122 17 -163 -5z m141 -52 c14 -6
33 -23 42 -39 53 -90 -88 -175 -172 -104 -58 49 -33 131 45 153 29 8 38 7 85
-10z"/>
<path d="M3972 5227 c-51 -29 -57 -56 -53 -254 1 -36 11 -41 35 -17 12 11 16
36 16 99 0 95 16 128 64 128 49 0 61 -24 64 -126 3 -70 7 -95 20 -104 9 -7 19
-13 24 -13 4 0 8 45 8 99 0 112 14 144 64 144 48 0 60 -23 66 -128 5 -92 13
-114 43 -115 4 0 7 53 7 118 0 125 -7 146 -57 171 -29 15 -93 13 -123 -3 -21
-12 -29 -12 -52 0 -33 17 -95 18 -126 1z"/>
<path d="M5595 5010 c-3 -5 2 -10 11 -10 16 0 16 -1 -2 -14 -18 -14 -18 -15
-1 -22 27 -10 55 20 37 40 -14 18 -36 21 -45 6z m40 -29 c-3 -6 -14 -10 -23
-10 -15 1 -15 2 1 6 9 2 17 9 17 15 0 6 3 9 6 5 3 -3 3 -10 -1 -16z"/>
<path d="M4543 4142 c-77 -28 -132 -70 -174 -135 -47 -73 -63 -141 -57 -248 5
-94 32 -160 93 -227 123 -137 359 -143 494 -12 142 138 142 397 0 539 -90 90
-239 125 -356 83z"/>
<path d="M4220 2645 c0 -167 2 -195 15 -195 13 0 15 28 15 195 0 167 -2 195
-15 195 -13 0 -15 -28 -15 -195z"/>
<path d="M4320 2830 c0 -6 28 -10 65 -10 l65 0 0 -185 c0 -158 2 -185 15 -185
13 0 15 27 15 185 l0 185 65 0 c37 0 65 4 65 10 0 6 -55 10 -145 10 -90 0
-145 -4 -145 -10z"/>
<path d="M3208 2381 c-73 -24 -123 -77 -139 -151 -29 -128 62 -244 191 -244
157 0 245 164 166 307 -36 67 -145 111 -218 88z m134 -37 c47 -24 81 -79 86
-139 6 -69 -11 -117 -53 -154 -116 -102 -285 -23 -285 133 0 139 131 222 252
160z"/>
<path d="M4810 2375 c0 -8 7 -15 15 -15 8 0 15 7 15 15 0 8 -7 15 -15 15 -8 0
-15 -7 -15 -15z"/>
<path d="M4630 2325 c0 -38 -3 -45 -20 -45 -11 0 -20 -4 -20 -10 0 -5 9 -10
20 -10 19 0 20 -7 20 -104 0 -121 9 -152 47 -167 30 -11 73 -5 73 11 0 6 -11
8 -24 4 -19 -4 -32 1 -51 20 -25 25 -26 30 -23 128 l3 103 48 3 c63 4 61 22
-3 22 l-50 0 0 45 c0 25 -4 45 -10 45 -5 0 -10 -20 -10 -45z"/>
<path d="M3633 2283 c-13 -2 -36 -18 -53 -34 l-30 -31 0 31 c0 17 -4 31 -10
31 -6 0 -10 -70 -10 -190 0 -120 4 -190 10 -190 6 0 10 31 10 74 l0 74 30 -28
c89 -83 225 -14 224 115 0 68 -25 112 -77 136 -42 19 -53 20 -94 12z m97 -42
c35 -25 50 -58 50 -113 0 -83 -76 -144 -146 -118 -68 26 -101 89 -82 158 24
89 108 124 178 73z"/>
<path d="M3940 2284 c-41 -15 -63 -31 -82 -62 -27 -43 -29 -124 -4 -170 22
-42 93 -77 140 -68 41 8 99 44 91 56 -4 6 -19 2 -37 -11 -20 -14 -47 -22 -75
-23 -39 -1 -49 3 -79 36 -19 21 -34 47 -34 58 0 19 6 20 120 20 l121 0 -7 38
c-9 50 -30 89 -57 107 -27 17 -75 27 -97 19z m64 -24 c30 -11 66 -65 66 -97 0
-22 -3 -23 -106 -23 l-106 0 6 33 c7 37 66 97 95 97 11 0 31 -4 45 -10z"/>
<path d="M4254 2276 c-17 -8 -40 -26 -52 -41 l-22 -28 0 37 c0 20 -4 36 -10
36 -6 0 -10 -55 -10 -145 0 -90 4 -145 10 -145 6 0 10 35 10 85 0 56 5 96 15
115 18 35 61 70 86 70 11 0 19 7 19 15 0 18 -6 18 -46 1z"/>
<path d="M4368 2278 c-21 -6 -38 -15 -38 -20 0 -7 12 -8 33 -2 66 16 108 10
133 -20 13 -15 24 -38 24 -51 0 -22 -3 -23 -74 -22 -83 2 -122 -16 -138 -65
-29 -86 101 -149 182 -89 30 21 30 21 30 1 0 -11 5 -20 10 -20 6 0 10 45 10
115 0 133 -10 159 -69 175 -42 12 -53 11 -103 -2z m115 -134 c35 -6 37 -9 37
-43 0 -76 -96 -122 -163 -78 -46 30 -33 99 23 120 21 8 58 8 103 1z"/>
<path d="M4996 2280 c-100 -30 -135 -165 -64 -246 103 -118 290 -10 249 144
-13 46 -55 89 -102 102 -39 11 -44 11 -83 0z m89 -24 c51 -22 77 -69 72 -134
-4 -61 -31 -96 -87 -113 -28 -9 -44 -8 -73 4 -53 23 -79 69 -74 134 4 58 24
88 72 109 39 17 48 17 90 0z"/>
<path d="M5324 2276 c-18 -8 -37 -22 -43 -33 -9 -16 -10 -15 -11 10 0 15 -4
27 -10 27 -6 0 -10 -55 -10 -145 0 -90 4 -145 10 -145 6 0 10 42 10 105 0 101
1 106 29 137 24 27 36 33 71 33 34 0 47 -6 66 -28 22 -26 24 -37 24 -138 0
-66 4 -109 10 -109 14 0 13 212 -1 243 -21 46 -92 67 -145 43z"/>
<path d="M5590 2273 c-30 -16 -35 -24 -38 -59 -4 -49 3 -56 88 -86 70 -25 86
-42 76 -81 -11 -47 -104 -56 -152 -16 -11 9 -18 9 -26 1 -7 -7 -2 -15 18 -25
46 -24 91 -29 129 -17 40 13 55 35 55 79 0 35 -16 53 -62 70 -84 31 -103 45
-103 76 0 23 7 33 30 44 26 12 35 12 74 -2 49 -18 78 -11 40 9 -45 23 -92 26
-129 7z"/>
<path d="M4810 2135 c0 -90 4 -145 10 -145 6 0 10 55 10 145 0 90 -4 145 -10
145 -6 0 -10 -55 -10 -145z"/>
<path d="M6239 1903 c-13 -16 -12 -17 4 -4 9 7 17 15 17 17 0 8 -8 3 -21 -13z"/>
<path d="M6265 1880 c6 -10 4 -12 -11 -6 -15 6 -17 5 -6 -5 9 -9 15 -10 23 -2
8 8 7 13 -2 18 -8 6 -10 4 -4 -5z"/>
<path d="M5413 1407 c-86 -37 -108 -56 -83 -72 5 -3 26 1 46 10 20 8 38 14 39
13 2 -2 23 -50 48 -108 25 -57 49 -106 54 -107 4 -2 14 1 22 6 11 7 5 29 -33
116 -25 58 -44 110 -41 115 3 5 21 14 41 20 25 8 34 16 30 27 -3 8 -6 17 -6
19 0 10 -31 0 -117 -39z"/>
<path d="M3293 1378 c-11 -13 -23 -31 -26 -41 -10 -26 16 -70 58 -98 42 -29
56 -66 31 -85 -24 -17 -69 -1 -100 37 -16 18 -30 27 -40 23 -21 -8 -20 -16 5
-48 48 -61 141 -76 178 -30 35 44 27 71 -36 130 -49 45 -56 56 -47 71 19 30
57 27 94 -7 27 -25 36 -29 46 -18 16 17 2 37 -46 67 -46 28 -91 27 -117 -1z"/>
<path d="M5185 1325 c-41 -15 -64 -37 -66 -64 -5 -69 21 -91 106 -91 74 0 102
-18 84 -51 -14 -27 -57 -42 -98 -34 -23 4 -37 2 -42 -7 -15 -22 -10 -27 35
-33 33 -5 55 -2 89 13 68 30 85 76 46 126 -18 23 -27 26 -88 26 -69 0 -91 10
-91 41 0 27 28 42 76 41 31 0 47 4 51 14 7 19 5 20 -32 28 -16 3 -48 -1 -70
-9z"/>
<path d="M3525 1318 c-45 -137 -73 -253 -62 -260 20 -13 30 -4 44 39 14 40 15
41 46 32 18 -5 50 -9 73 -9 49 0 82 30 90 81 8 49 -22 82 -98 108 -72 24 -87
26 -93 9z m123 -64 c26 -17 30 -65 7 -84 -16 -14 -101 -9 -115 6 -4 5 -1 31 7
57 14 47 15 48 46 42 18 -4 42 -13 55 -21z"/>
<path d="M5012 1271 c-11 -6 -7 -33 17 -138 17 -72 31 -133 31 -136 0 -3 9 -3
20 0 25 7 25 9 -6 140 -38 160 -34 152 -62 134z"/>
<path d="M3765 1172 c-9 -53 -21 -115 -25 -137 -5 -22 -6 -43 -2 -46 6 -5 176
-39 195 -39 3 0 7 8 9 18 3 14 -10 20 -77 32 l-80 15 3 35 c2 19 7 38 11 42 3
4 35 2 70 -4 52 -10 64 -9 71 2 11 18 -1 26 -60 35 -79 12 -79 12 -70 51 5 20
10 37 12 40 3 2 38 -3 79 -10 71 -14 88 -11 89 15 0 4 -42 14 -92 23 -51 9
-98 19 -104 21 -8 2 -18 -31 -29 -93z"/>
<path d="M4770 1220 c-12 -8 -12 -23 4 -122 26 -164 24 -160 55 -154 14 3 56
11 94 17 56 9 67 14 67 31 0 17 -4 19 -47 12 -27 -5 -61 -8 -78 -9 l-29 0 -20
118 c-10 64 -22 117 -25 117 -3 0 -13 -4 -21 -10z"/>
<path d="M4100 1192 c-73 -36 -101 -126 -62 -202 33 -66 130 -92 202 -55 29
15 31 18 17 32 -12 12 -19 13 -36 3 -51 -27 -119 -9 -140 37 -14 30 -14 88 -1
114 26 48 110 60 152 23 14 -14 20 -14 33 -4 24 20 18 30 -27 50 -54 24 -93
25 -138 2z"/>
<path d="M4494 1073 c-27 -75 -50 -140 -52 -145 -2 -4 8 -8 21 -8 20 0 27 6
32 30 4 16 10 32 13 34 4 2 37 7 74 11 l68 7 17 -36 c12 -27 23 -36 41 -36 13
0 22 3 20 8 -2 4 -34 67 -71 140 -57 112 -71 132 -90 132 -21 0 -29 -15 -73
-137z m108 23 c15 -30 24 -57 21 -60 -4 -3 -28 -6 -54 -6 l-48 0 22 60 c12 33
24 60 27 60 3 0 18 -24 32 -54z"/>
<path d="M4340 1086 c0 -62 -3 -128 -6 -145 -6 -28 -4 -31 20 -31 l26 0 0 145
c0 138 -1 145 -20 145 -19 0 -20 -7 -20 -114z"/>
</g>
</svg>
